<svg xmlns="http://www.w3.org/2000/svg" width="120" height="64" viewBox="0 0 120 64"><rect x="0" y="0" width="120" height="5" fill="#1E9E52"/><rect x="0" y="6.5" width="120" height="2" fill="#C9A227"/><path d="M0 26 L10 11 L20 26 Z" fill="#F0E9D8"/><path d="M10 26 L20 11 L30 26 Z" fill="#1E9E52" opacity=".55"/><path d="M20 26 L30 11 L40 26 Z" fill="#F0E9D8"/><path d="M30 26 L40 11 L50 26 Z" fill="#1E9E52" opacity=".55"/><path d="M40 26 L50 11 L60 26 Z" fill="#F0E9D8"/><path d="M50 26 L60 11 L70 26 Z" fill="#1E9E52" opacity=".55"/><path d="M60 26 L70 11 L80 26 Z" fill="#F0E9D8"/><path d="M70 26 L80 11 L90 26 Z" fill="#1E9E52" opacity=".55"/><path d="M80 26 L90 11 L100 26 Z" fill="#F0E9D8"/><path d="M90 26 L100 11 L110 26 Z" fill="#1E9E52" opacity=".55"/><path d="M100 26 L110 11 L120 26 Z" fill="#F0E9D8"/><path d="M110 26 L120 11 L130 26 Z" fill="#1E9E52" opacity=".55"/><path d="M10 28 L19 38 L10 48 L1 38 Z" fill="#F0E9D8"/><circle cx="10" cy="38" r="3" fill="#C9A227"/><path d="M30 28 L39 38 L30 48 L21 38 Z" fill="#F0E9D8"/><circle cx="30" cy="38" r="3" fill="#C9A227"/><path d="M50 28 L59 38 L50 48 L41 38 Z" fill="#F0E9D8"/><circle cx="50" cy="38" r="3" fill="#C9A227"/><path d="M70 28 L79 38 L70 48 L61 38 Z" fill="#F0E9D8"/><circle cx="70" cy="38" r="3" fill="#C9A227"/><path d="M90 28 L99 38 L90 48 L81 38 Z" fill="#F0E9D8"/><circle cx="90" cy="38" r="3" fill="#C9A227"/><path d="M110 28 L119 38 L110 48 L101 38 Z" fill="#F0E9D8"/><circle cx="110" cy="38" r="3" fill="#C9A227"/><path d="M0 50 L10 57 L20 50 Z" fill="#F0E9D8" opacity=".8"/><path d="M20 50 L30 57 L40 50 Z" fill="#F0E9D8" opacity=".8"/><path d="M40 50 L50 57 L60 50 Z" fill="#F0E9D8" opacity=".8"/><path d="M60 50 L70 57 L80 50 Z" fill="#F0E9D8" opacity=".8"/><path d="M80 50 L90 57 L100 50 Z" fill="#F0E9D8" opacity=".8"/><path d="M100 50 L110 57 L120 50 Z" fill="#F0E9D8" opacity=".8"/><rect x="0" y="59" width="120" height="5" fill="#1E9E52"/></svg>